<?xml version="1.0" encoding="UTF-8"?><svg id="uuid-a10578c5-214c-42a2-a04f-dde9e7316f70" xmlns="http://www.w3.org/2000/svg" viewBox="0 0 450.71 110.97"><path id="uuid-1b25419f-fbe1-4baa-bcfe-365800ea96df" d="m450.5,58.1v13.76h-12.87l.06,37.99h-18.73s0-37.99,0-37.99h-16.84c-7.71.02-11.21,5.91-11.21,12.28,0,7.15,6.01,12.34,13.12,12.69,4.02.19,6.69-.74,9.72-3.35v14.03c-4.67,2.56-7.9,3.41-13.23,3.46-15.18.13-28.24-11.58-28.2-26.83.06-14.84,8.6-26.03,28.23-26.03,16.38,0,49.96,0,49.96,0h0Zm-174.25,0h-19.1s0,22.3,0,22.3l-22.37-22.3h-14.86v51.74h18.82v-21.91s21.82,21.91,21.82,21.91h15.71v-51.74h0Zm-120.85,1.55c-4.85-2.23-9.23-2.65-15.27-2.66-14.75-.02-27.71,12.03-27.65,27.14.07,15.48,11.86,26.83,29.23,26.83,6.14,0,8.97-.54,14.03-2.94v-15.04c-2.95,1.88-6.47,3.47-11.25,3.47-6.83,0-12.48-5.47-12.5-12.31,0-7.04,5.61-12.69,12.66-12.71,4.24,0,7.91,1.34,10.75,3.6,0,0,0-15.55,0-15.37h0Zm167.75-1.55h-44.47v13.76h13.09s0,37.99,0,37.99h18.63v-37.99h12.75v-13.76h0Zm97.04-20.33l8.8,13.92h21.72s-12.72-17.56-19.44-26.48L450.6,0h-21.36l-9.06,12.32h.12L411.32,0h-21.42l19.33,25.22c-6.73,8.92-19.46,26.48-19.46,26.48h21.73l8.8-13.92h-.12ZM367.3,0v51.69h20.16V0h-20.16Zm-182.9,0h-18.73v51.7h18.73v-18.85h16.11v18.85h18.7V0h-18.7v17.66h-16.12s0-17.66,0-17.66h0Zm176.56,0h-18.77l.02,21.92L319.11,0h-14.89l-.03,51.7h18.75v-21.86l22.23,21.86h15.8V0h0ZM57.15,77.03l-.07-9.45c0-5.09,3.93-7.17,3.93-7.17,3.91-2.53,7.61-7.33,7.58-13.29-.04-4.98-2.08-8.45-5.4-11.57-2.57-2.4-6.07-3.35-6.07-7.06v-10.03c0-3.19,0-6.04,5.61-6.04,18.52,0,33.83,17.07,33.83,34.34s-14.3,34.88-33.91,34.88c-5.86,0-5.51-4.61-5.51-4.61h0Zm-8.09-9.4v24.32c0,3.14-2.59,5.7-5.73,5.7h-24.77c-3.13,0-6.11-2.67-6.1-5.81l.03-73.67c0-3.12,2.57-5.69,5.69-5.69h25.24c5.65-.03,5.65,2.83,5.65,6l.03,10.02c0,3.85-3.36,4.58-6.07,7.05-3.67,3.37-5.41,6.59-5.45,11.57-.06,5.96,3.89,10.66,7.57,13.3,0,0,3.92,2.22,3.92,7.21h0Zm4.08-13.01c-4.14,0-7.49-3.34-7.49-7.47s3.36-7.48,7.49-7.48,7.47,3.35,7.47,7.48-3.35,7.47-7.47,7.47h0ZM7.7,0C3.45,0,0,3.44,0,7.68v94.51c0,4.25,3.45,7.68,7.7,7.68h93.48c4.25,0,7.69-3.43,7.69-7.68V7.68c0-4.24-3.44-7.68-7.69-7.68H7.7Zm126.61,12.38h2.94c4.03,0,6.64,2.42,6.69,5.88.03,3.49-2.67,5.99-6.69,5.99h-2.94v-11.87h0Zm6.97-12.38h-25.85l.05,51.7h18.83v-14.92h6.98c10.68,0,21.52-7.47,21.45-18.52-.07-10.99-7.42-18.27-21.45-18.27h0Zm110.24,14.99c5.54-.03,8.91,5.57,8.84,11.12-.06,5.44-3.36,10.85-8.83,10.83-5.43-.02-8.7-5.41-8.76-10.83-.07-5.53,3.22-11.09,8.74-11.12h0ZM298.63,0h-47.06c-9.19,0-14.58,1.72-19.9,6.74-5.21,4.92-7.24,11.27-7.24,19.29,0,7.51,3.37,14.58,7.24,18.26,4.35,4.17,10.63,7.42,19.92,7.42h47.04v-12.6h-21.17v-7.23h20.9v-12.29h-20.9v-7.16h21.16V0h0Zm42.14,88.53l4.02-12.89,4.03,12.89h-8.04Zm14.08-30.44h-20.05l-21.38,51.76h19.37l3.69-9.36h16.68l3.68,9.36h19.14s-21.14-51.76-21.14-51.76h0Zm-167.85,14.67c5.68-.03,9.04,5.8,8.97,11.46-.07,5.59-3.36,11.22-8.96,11.2-5.58-.02-8.84-5.63-8.91-11.2-.06-5.64,3.23-11.43,8.9-11.46h0Zm27.99,11.37c.07-15.22-10.88-27.11-28.12-27.07-16.69.03-27.78,11.97-27.7,27.07.07,15.05,11.01,26.83,27.7,26.82,17.23,0,28.03-11.67,28.12-26.82h0Z" fill="#fff"/></svg>